# xmcd CD database file
#
# Track frame offsets:
#	150
#	17312
#	34408
#	47367
#	66108
#	75645
#	90139
#	105440
#	124595
#	137972
#
# Disc length: 2015 seconds
#
# Revision: 0
# Processed by: cddbd v1.5.2PL0 Copyright (c) Steve Scherf et al.
# Submitted via: CDex 1.70beta2
#
DISCID=6d07dd0a
DTITLE=Don Sebesky and The Jazz-Rock Syndrome - Don Sebesky and The Jazz-Rock Syndrome
DYEAR=1968
DGENRE=Jazz
TTITLE0=The Word
TTITLE1=Shake A Lady
TTITLE2=Banana Flower
TTITLE3=Meet A Cheeta
TTITLE4=I Dig Rock 'N Roll Music
TTITLE5=Never My Love
TTITLE6=Dancing In The Streets
TTITLE7=Somebody Groovy
TTITLE8=You've Got Your Troubles
TTITLE9=Big Mama Cass
EXTD=YEAR: 1968
EXTT0=
EXTT1=
EXTT2=
EXTT3=
EXTT4=
EXTT5=
EXTT6=
EXTT7=
EXTT8=
EXTT9=
PLAYORDER=
